a1000-p0000.ufo
<glyph name="percent" format="1">
  <advance width="926"/>
  <unicode hex="0025"/>
  <outline>
    <contour>
      <point x="216" y="277" type="curve" smooth="yes"/>
      <point x="326" y="277"/>
      <point x="383" y="358"/>
      <point x="383" y="514" type="curve" smooth="yes"/>
      <point x="383" y="669"/>
      <point x="326" y="750"/>
      <point x="216" y="750" type="curve" smooth="yes"/>
      <point x="106" y="750"/>
      <point x="49" y="669"/>
      <point x="49" y="514" type="curve" smooth="yes"/>
      <point x="49" y="358"/>
      <point x="106" y="277"/>
    </contour>
    <contour>
      <point x="216" y="311" type="curve" smooth="yes"/>
      <point x="129" y="311"/>
      <point x="83" y="382"/>
      <point x="83" y="514" type="curve" smooth="yes"/>
      <point x="83" y="646"/>
      <point x="129" y="716"/>
      <point x="216" y="716" type="curve" smooth="yes"/>
      <point x="303" y="716"/>
      <point x="349" y="646"/>
      <point x="349" y="514" type="curve" smooth="yes"/>
      <point x="349" y="382"/>
      <point x="303" y="311"/>
    </contour>
    <contour>
      <point x="710" y="-10" type="curve" smooth="yes"/>
      <point x="820" y="-10"/>
      <point x="877" y="71"/>
      <point x="877" y="227" type="curve" smooth="yes"/>
      <point x="877" y="382"/>
      <point x="820" y="463"/>
      <point x="710" y="463" type="curve" smooth="yes"/>
      <point x="600" y="463"/>
      <point x="543" y="382"/>
      <point x="543" y="227" type="curve" smooth="yes"/>
      <point x="543" y="71"/>
      <point x="600" y="-10"/>
    </contour>
    <contour>
      <point x="710" y="24" type="curve" smooth="yes"/>
      <point x="623" y="24"/>
      <point x="577" y="95"/>
      <point x="577" y="227" type="curve" smooth="yes"/>
      <point x="577" y="359"/>
      <point x="623" y="429"/>
      <point x="710" y="429" type="curve" smooth="yes"/>
      <point x="797" y="429"/>
      <point x="843" y="359"/>
      <point x="843" y="227" type="curve" smooth="yes"/>
      <point x="843" y="95"/>
      <point x="797" y="24"/>
    </contour>
    <contour>
      <point x="258" y="0" type="line"/>
      <point x="297" y="0" type="line"/>
      <point x="670" y="740" type="line"/>
      <point x="632" y="740" type="line"/>
    </contour>
  </outline>
</glyph>
<glyph name="plus" format="1">
  <advance width="478"/>
  <unicode hex="002B"/>
  <outline>
    <contour>
      <point x="57" y="353" type="line"/>
      <point x="421" y="353" type="line"/>
      <point x="421" y="387" type="line"/>
      <point x="57" y="387" type="line"/>
    </contour>
    <contour>
      <point x="222" y="178" type="line"/>
      <point x="256" y="178" type="line"/>
      <point x="256" y="562" type="line"/>
      <point x="222" y="562" type="line"/>
    </contour>
  </outline>
</glyph>
<glyph name="greater" format="1">
  <advance width="501"/>
  <unicode hex="003E"/>
  <outline>
    <contour>
      <point x="412" y="362" type="line"/>
      <point x="447" y="362" type="line"/>
      <point x="447" y="382" type="line"/>
      <point x="81" y="546" type="line"/>
      <point x="81" y="508" type="line"/>
    </contour>
    <contour>
      <point x="84" y="188" type="line"/>
      <point x="447" y="352" type="line"/>
      <point x="447" y="372" type="line"/>
      <point x="412" y="372" type="line"/>
      <point x="84" y="226" type="line"/>
    </contour>
  </outline>
</glyph>
<glyph name="at" format="1">
  <advance width="922"/>
  <unicode hex="0040"/>
  <outline>
    <contour>
      <point x="447" y="-136" type="curve" smooth="yes"/>
      <point x="511" y="-136"/>
      <point x="586" y="-124"/>
      <point x="665" y="-102" type="curve"/>
      <point x="650" y="-70" type="line"/>
      <point x="577" y="-91"/>
      <point x="507" y="-102"/>
      <point x="447" y="-102" type="curve" smooth="yes"/>
      <point x="227" y="-102"/>
      <point x="95" y="34"/>
      <point x="95" y="261" type="curve" smooth="yes"/>
      <point x="95" y="497"/>
      <point x="240" y="641"/>
      <point x="476" y="641" type="curve" smooth="yes"/>
      <point x="696" y="641"/>
      <point x="817" y="522"/>
      <point x="817" y="306" type="curve" smooth="yes"/>
      <point x="817" y="165"/>
      <point x="767" y="86"/>
      <point x="677" y="86" type="curve" smooth="yes"/>
      <point x="621" y="86"/>
      <point x="596" y="110"/>
      <point x="596" y="168" type="curve" smooth="yes"/>
      <point x="596" y="190"/>
      <point x="601" y="218"/>
      <point x="607" y="251" type="curve" smooth="yes"/>
      <point x="647" y="464" type="line"/>
      <point x="591" y="483"/>
      <point x="543" y="493"/>
      <point x="503" y="493" type="curve" smooth="yes"/>
      <point x="349" y="493"/>
      <point x="243" y="385"/>
      <point x="243" y="230" type="curve" smooth="yes"/>
      <point x="243" y="122"/>
      <point x="296" y="59"/>
      <point x="385" y="59" type="curve" smooth="yes"/>
      <point x="447" y="59"/>
      <point x="519" y="95"/>
      <point x="557" y="145" type="curve"/>
      <point x="563" y="145" type="line"/>
      <point x="570" y="82"/>
      <point x="606" y="53"/>
      <point x="677" y="53" type="curve" smooth="yes"/>
      <point x="790" y="53"/>
      <point x="853" y="143"/>
      <point x="853" y="306" type="curve" smooth="yes"/>
      <point x="853" y="539"/>
      <point x="714" y="675"/>
      <point x="476" y="675" type="curve" smooth="yes"/>
      <point x="218" y="675"/>
      <point x="61" y="518"/>
      <point x="61" y="261" type="curve" smooth="yes"/>
      <point x="61" y="14"/>
      <point x="207" y="-136"/>
    </contour>
    <contour>
      <point x="385" y="92" type="curve" smooth="yes"/>
      <point x="317" y="92"/>
      <point x="277" y="143"/>
      <point x="277" y="230" type="curve" smooth="yes"/>
      <point x="277" y="365"/>
      <point x="370" y="460"/>
      <point x="503" y="460" type="curve" smooth="yes"/>
      <point x="530" y="460"/>
      <point x="564" y="454"/>
      <point x="605" y="442" type="curve"/>
      <point x="572" y="257" type="line" smooth="yes"/>
      <point x="555" y="163"/>
      <point x="474" y="92"/>
    </contour>
  </outline>
</glyph>
<glyph name="A" format="1">
  <advance width="680"/>
  <unicode hex="0041"/>
  <note>
    590
  </note>
  <outline>
    <contour>
      <point x="668" y="5" type="move" name="ogonek"/>
    </contour>
    <contour>
      <point x="342" y="760" type="move" name="topUC"/>
    </contour>
    <contour>
      <point x="12" y="0" type="line"/>
      <point x="48" y="0" type="line"/>
      <point x="149" y="249" type="line"/>
      <point x="531" y="249" type="line"/>
      <point x="632" y="0" type="line"/>
      <point x="668" y="0" type="line"/>
      <point x="668" y="5" type="line"/>
      <point x="369" y="740" type="line"/>
      <point x="311" y="740" type="line"/>
      <point x="12" y="5" type="line"/>
    </contour>
    <contour>
      <point x="163" y="283" type="line"/>
      <point x="289" y="594" type="line"/>
      <point x="338" y="714" type="line"/>
      <point x="342" y="714" type="line"/>
      <point x="391" y="594" type="line"/>
      <point x="517" y="283" type="line"/>
    </contour>
  </outline>
</glyph>
<glyph name="D" format="1">
  <advance width="745"/>
  <unicode hex="0044"/>
  <outline>
    <contour>
      <point x="336" y="760" type="move" name="topUC"/>
    </contour>
    <contour>
      <point x="352" y="0" type="move" name="bottom"/>
    </contour>
    <contour>
      <point x="297" y="-9" type="curve" smooth="yes"/>
      <point x="561" y="-9"/>
      <point x="682" y="111"/>
      <point x="682" y="371" type="curve" smooth="yes"/>
      <point x="682" y="630"/>
      <point x="562" y="748"/>
      <point x="297" y="748" type="curve" smooth="yes"/>
      <point x="251" y="748"/>
      <point x="147" y="743"/>
      <point x="106" y="739" type="curve"/>
      <point x="106" y="9" type="line"/>
      <point x="131" y="-2"/>
      <point x="208" y="-9"/>
    </contour>
    <contour>
      <point x="297" y="25" type="curve" smooth="yes"/>
      <point x="239" y="25"/>
      <point x="205" y="27"/>
      <point x="140" y="36" type="curve"/>
      <point x="140" y="705" type="line"/>
      <point x="182" y="709"/>
      <point x="256" y="713"/>
      <point x="297" y="713" type="curve" smooth="yes"/>
      <point x="538" y="713"/>
      <point x="648" y="606"/>
      <point x="648" y="371" type="curve" smooth="yes"/>
      <point x="648" y="136"/>
      <point x="536" y="25"/>
    </contour>
  </outline>
</glyph>
<glyph name="E" format="1">
  <advance width="623"/>
  <unicode hex="0045"/>
  <outline>
    <contour>
      <point x="562" y="0" type="move" name="ogonek"/>
    </contour>
    <contour>
      <point x="334" y="760" type="move" name="topUC"/>
    </contour>
    <contour>
      <point x="352" y="0" type="move" name="bottom"/>
    </contour>
    <contour>
      <point x="106" y="0" type="line"/>
      <point x="562" y="0" type="line"/>
      <point x="562" y="34" type="line"/>
      <point x="140" y="34" type="line"/>
      <point x="140" y="706" type="line"/>
      <point x="554" y="706" type="line"/>
      <point x="554" y="740" type="line"/>
      <point x="106" y="740" type="line"/>
    </contour>
    <contour>
      <point x="121" y="361" type="line"/>
      <point x="537" y="361" type="line"/>
      <point x="537" y="395" type="line"/>
      <point x="121" y="395" type="line"/>
    </contour>
  </outline>
</glyph>
<glyph name="I" format="1">
  <advance width="246"/>
  <unicode hex="0049"/>
  <outline>
    <contour>
      <point x="140" y="0" type="move" name="ogonek"/>
    </contour>
    <contour>
      <point x="124" y="760" type="move" name="topUC"/>
    </contour>
    <contour>
      <point x="124" y="0" type="move" name="bottom"/>
    </contour>
    <contour>
      <point x="106" y="0" type="line"/>
      <point x="140" y="0" type="line"/>
      <point x="140" y="740" type="line"/>
      <point x="106" y="740" type="line"/>
    </contour>
  </outline>
</glyph>
<glyph name="M" format="1">
  <advance width="929"/>
  <unicode hex="004D"/>
  <outline>
    <contour>
      <point x="106" y="0" type="line"/>
      <point x="140" y="0" type="line"/>
      <point x="140" y="688" type="line"/>
      <point x="144" y="688" type="line"/>
      <point x="256" y="437" type="line"/>
      <point x="445" y="26" type="line"/>
      <point x="484" y="26" type="line"/>
      <point x="673" y="437" type="line"/>
      <point x="785" y="688" type="line"/>
      <point x="789" y="688" type="line"/>
      <point x="789" y="0" type="line"/>
      <point x="823" y="0" type="line"/>
      <point x="823" y="740" type="line"/>
      <point x="773" y="740" type="line"/>
      <point x="549" y="249" type="line"/>
      <point x="466" y="62" type="line"/>
      <point x="462" y="62" type="line"/>
      <point x="380" y="249" type="line"/>
      <point x="156" y="740" type="line"/>
      <point x="106" y="740" type="line"/>
    </contour>
  </outline>
</glyph>
<glyph name="O" format="1">
  <advance width="760"/>
  <unicode hex="004F"/>
  <outline>
    <contour>
      <point x="490" y="31" type="move" name="ogonek"/>
    </contour>
    <contour>
      <point x="380" y="760" type="move" name="topUC"/>
    </contour>
    <contour>
      <point x="380" y="0" type="move" name="bottom"/>
    </contour>
    <contour>
      <point x="380" y="-10" type="curve" smooth="yes"/>
      <point x="578" y="-10"/>
      <point x="697" y="122"/>
      <point x="697" y="369" type="curve" smooth="yes"/>
      <point x="697" y="616"/>
      <point x="578" y="750"/>
      <point x="380" y="750" type="curve" smooth="yes"/>
      <point x="182" y="750"/>
      <point x="63" y="616"/>
      <point x="63" y="369" type="curve" smooth="yes"/>
      <point x="63" y="122"/>
      <point x="182" y="-10"/>
    </contour>
    <contour>
      <point x="380" y="24" type="curve" smooth="yes"/>
      <point x="202" y="24"/>
      <point x="97" y="152"/>
      <point x="97" y="369" type="curve" smooth="yes"/>
      <point x="97" y="589"/>
      <point x="201" y="716"/>
      <point x="380" y="716" type="curve" smooth="yes"/>
      <point x="559" y="716"/>
      <point x="663" y="589"/>
      <point x="663" y="369" type="curve" smooth="yes"/>
      <point x="663" y="154"/>
      <point x="557" y="24"/>
    </contour>
  </outline>
</glyph>
<glyph name="T" format="1">
  <advance width="614"/>
  <unicode hex="0054"/>
  <outline>
    <contour>
      <point x="308" y="760" type="move" name="topUC"/>
    </contour>
    <contour>
      <point x="308" y="0" type="move" name="bottom"/>
    </contour>
    <contour>
      <point x="290" y="0" type="line"/>
      <point x="324" y="0" type="line"/>
      <point x="324" y="706" type="line"/>
      <point x="598" y="706" type="line"/>
      <point x="598" y="740" type="line"/>
      <point x="16" y="740" type="line"/>
      <point x="16" y="706" type="line"/>
      <point x="290" y="706" type="line"/>
    </contour>
  </outline>
</glyph>
<glyph name="Z" format="1">
  <advance width="576"/>
  <unicode hex="005A"/>
  <outline>
    <contour>
      <point x="296" y="760" type="move" name="topUC"/>
    </contour>
    <contour>
      <point x="286" y="0" type="move" name="bottom"/>
    </contour>
    <contour>
      <point x="36" y="0" type="line"/>
      <point x="537" y="0" type="line"/>
      <point x="537" y="34" type="line"/>
      <point x="83" y="34" type="line"/>
      <point x="83" y="38" type="line"/>
      <point x="529" y="712" type="line"/>
      <point x="529" y="740" type="line"/>
      <point x="50" y="740" type="line"/>
      <point x="50" y="706" type="line"/>
      <point x="484" y="706" type="line"/>
      <point x="484" y="702" type="line"/>
      <point x="36" y="30" type="line"/>
    </contour>
  </outline>
</glyph>
<glyph name="bracketright" format="1">
  <advance width="301"/>
  <unicode hex="005D"/>
  <outline>
    <contour>
      <point x="201" y="-160" type="line"/>
      <point x="201" y="868" type="line"/>
      <point x="38" y="868" type="line"/>
      <point x="38" y="834" type="line"/>
      <point x="167" y="834" type="line"/>
      <point x="167" y="-126" type="line"/>
      <point x="38" y="-126" type="line"/>
      <point x="38" y="-160" type="line"/>
    </contour>
  </outline>
</glyph>
<glyph name="i" format="1">
  <advance width="218"/>
  <unicode hex="0069"/>
  <outline>
    <contour>
      <point x="126" y="0" type="move" name="ogonek"/>
    </contour>
    <contour>
      <point x="109" y="0" type="move" name="bottom"/>
    </contour>
    <contour>
      <point x="109" y="672" type="curve" smooth="yes"/>
      <point x="127" y="672"/>
      <point x="139" y="683"/>
      <point x="139" y="701" type="curve" smooth="yes"/>
      <point x="139" y="719"/>
      <point x="127" y="730"/>
      <point x="109" y="730" type="curve" smooth="yes"/>
      <point x="90" y="730"/>
      <point x="80" y="719"/>
      <point x="80" y="701" type="curve" smooth="yes"/>
      <point x="80" y="682"/>
      <point x="90" y="672"/>
    </contour>
    <contour>
      <point x="92" y="0" type="line"/>
      <point x="126" y="0" type="line"/>
      <point x="126" y="540" type="line"/>
      <point x="92" y="540" type="line"/>
    </contour>
  </outline>
</glyph>
<glyph name="k" format="1">
  <advance width="542"/>
  <unicode hex="006B"/>
  <outline>
    <contour>
      <point x="303" y="0" type="move" name="bottom"/>
    </contour>
    <contour>
      <point x="90" y="0" type="line"/>
      <point x="124" y="0" type="line"/>
      <point x="124" y="261" type="line"/>
      <point x="249" y="261" type="line"/>
      <point x="493" y="0" type="line"/>
      <point x="536" y="0" type="line"/>
      <point x="291" y="264" type="line"/>
      <point x="275" y="274" type="line"/>
      <point x="275" y="278" type="line"/>
      <point x="290" y="287" type="line"/>
      <point x="520" y="540" type="line"/>
      <point x="477" y="540" type="line"/>
      <point x="251" y="293" type="line"/>
      <point x="124" y="293" type="line"/>
      <point x="124" y="808" type="line"/>
      <point x="90" y="808" type="line"/>
    </contour>
  </outline>
</glyph>
<glyph name="l" format="1">
  <advance width="222"/>
  <unicode hex="006C"/>
  <outline>
    <contour>
      <point x="111" y="808" type="move" name="top"/>
    </contour>
    <contour>
      <point x="221" y="370" type="move" name="periodcentered"/>
    </contour>
    <contour>
      <point x="234" y="808" type="move" name="caronalt"/>
    </contour>
    <contour>
      <point x="111" y="0" type="move" name="bottom"/>
    </contour>
    <contour>
      <point x="94" y="0" type="line"/>
      <point x="128" y="0" type="line"/>
      <point x="128" y="808" type="line"/>
      <point x="94" y="808" type="line"/>
    </contour>
  </outline>
</glyph>
<glyph name="o" format="1">
  <advance width="588"/>
  <unicode hex="006F"/>
  <outline>
    <contour>
      <point x="294" y="600" type="move" name="top"/>
    </contour>
    <contour>
      <point x="373" y="17" type="move" name="ogonek"/>
    </contour>
    <contour>
      <point x="294" y="0" type="move" name="bottom"/>
    </contour>
    <contour>
      <point x="294" y="-10" type="curve" smooth="yes"/>
      <point x="445" y="-10"/>
      <point x="530" y="91"/>
      <point x="530" y="270" type="curve" smooth="yes"/>
      <point x="530" y="449"/>
      <point x="445" y="550"/>
      <point x="294" y="550" type="curve" smooth="yes"/>
      <point x="143" y="550"/>
      <point x="58" y="449"/>
      <point x="58" y="270" type="curve" smooth="yes"/>
      <point x="58" y="91"/>
      <point x="143" y="-10"/>
    </contour>
    <contour>
      <point x="294" y="24" type="curve" smooth="yes"/>
      <point x="160" y="24"/>
      <point x="94" y="106"/>
      <point x="94" y="270" type="curve" smooth="yes"/>
      <point x="94" y="434"/>
      <point x="160" y="516"/>
      <point x="294" y="516" type="curve" smooth="yes"/>
      <point x="428" y="516"/>
      <point x="494" y="434"/>
      <point x="494" y="270" type="curve" smooth="yes"/>
      <point x="494" y="106"/>
      <point x="428" y="24"/>
    </contour>
  </outline>
</glyph>
<glyph name="copyright" format="1">
  <advance width="868"/>
  <unicode hex="00A9"/>
  <outline>
    <contour>
      <point x="450" y="163" type="curve" smooth="yes"/>
      <point x="480" y="163"/>
      <point x="509" y="167"/>
      <point x="535" y="174" type="curve"/>
      <point x="535" y="207" type="line"/>
      <point x="508" y="202"/>
      <point x="479" y="197"/>
      <point x="451" y="197" type="curve" smooth="yes"/>
      <point x="365" y="197"/>
      <point x="303" y="251"/>
      <point x="303" y="365" type="curve" smooth="yes"/>
      <point x="303" y="480"/>
      <point x="362" y="537"/>
      <point x="452" y="537" type="curve" smooth="yes"/>
      <point x="480" y="537"/>
      <point x="509" y="533"/>
      <point x="533" y="528" type="curve"/>
      <point x="533" y="563" type="line"/>
      <point x="506" y="568"/>
      <point x="478" y="572"/>
      <point x="450" y="572" type="curve" smooth="yes"/>
      <point x="341" y="572"/>
      <point x="267" y="504"/>
      <point x="267" y="365" type="curve" smooth="yes"/>
      <point x="267" y="230"/>
      <point x="341" y="163"/>
    </contour>
    <contour>
      <point x="434" y="-11" type="curve" smooth="yes"/>
      <point x="657" y="-11"/>
      <point x="806" y="141"/>
      <point x="806" y="370" type="curve" smooth="yes"/>
      <point x="806" y="599"/>
      <point x="657" y="751"/>
      <point x="434" y="751" type="curve" smooth="yes"/>
      <point x="211" y="751"/>
      <point x="62" y="599"/>
      <point x="62" y="370" type="curve" smooth="yes"/>
      <point x="62" y="141"/>
      <point x="211" y="-11"/>
    </contour>
    <contour>
      <point x="434" y="23" type="curve" smooth="yes"/>
      <point x="231" y="23"/>
      <point x="96" y="161"/>
      <point x="96" y="370" type="curve" smooth="yes"/>
      <point x="96" y="579"/>
      <point x="231" y="717"/>
      <point x="434" y="717" type="curve" smooth="yes"/>
      <point x="637" y="717"/>
      <point x="772" y="579"/>
      <point x="772" y="370" type="curve" smooth="yes"/>
      <point x="772" y="161"/>
      <point x="637" y="23"/>
    </contour>
  </outline>
</glyph>
<glyph name="periodcentered" format="1">
  <advance width="225"/>
  <unicode hex="00B7"/>
  <outline>
    <contour>
      <point x="112" y="370" type="move" name="_periodcentered"/>
    </contour>
    <contour>
      <point x="112" y="337" type="curve" smooth="yes"/>
      <point x="129" y="337"/>
      <point x="146" y="346"/>
      <point x="146" y="370" type="curve" smooth="yes"/>
      <point x="146" y="394"/>
      <point x="129" y="403"/>
      <point x="112" y="403" type="curve" smooth="yes"/>
      <point x="93" y="403"/>
      <point x="79" y="393"/>
      <point x="79" y="370" type="curve" smooth="yes"/>
      <point x="79" y="347"/>
      <point x="93" y="337"/>
    </contour>
  </outline>
</glyph>
<glyph name="multiply" format="1">
  <advance width="464"/>
  <unicode hex="00D7"/>
  <outline>
    <contour>
      <point x="365" y="214" type="line"/>
      <point x="389" y="238" type="line"/>
      <point x="99" y="528" type="line"/>
      <point x="75" y="504" type="line"/>
    </contour>
    <contour>
      <point x="99" y="214" type="line"/>
      <point x="389" y="504" type="line"/>
      <point x="365" y="528" type="line"/>
      <point x="75" y="238" type="line"/>
    </contour>
  </outline>
</glyph>
<glyph name="idieresis" format="1">
  <advance width="218"/>
  <unicode hex="00EF"/>
  <outline>
    <contour>
      <point x="-11" y="676" type="curve" smooth="yes"/>
      <point x="5" y="676"/>
      <point x="20" y="686"/>
      <point x="20" y="707" type="curve" smooth="yes"/>
      <point x="20" y="728"/>
      <point x="5" y="737"/>
      <point x="-11" y="737" type="curve" smooth="yes"/>
      <point x="-29" y="737"/>
      <point x="-42" y="727"/>
      <point x="-42" y="707" type="curve" smooth="yes"/>
      <point x="-42" y="686"/>
      <point x="-29" y="676"/>
    </contour>
    <contour>
      <point x="229" y="676" type="curve" smooth="yes"/>
      <point x="245" y="676"/>
      <point x="260" y="686"/>
      <point x="260" y="707" type="curve" smooth="yes"/>
      <point x="260" y="728"/>
      <point x="245" y="737"/>
      <point x="229" y="737" type="curve" smooth="yes"/>
      <point x="211" y="737"/>
      <point x="199" y="727"/>
      <point x="199" y="707" type="curve" smooth="yes"/>
      <point x="199" y="686"/>
      <point x="211" y="676"/>
    </contour>
    <component base="dotlessi"/>
  </outline>
</glyph>
<glyph name="dcroat" format="1">
  <advance width="604"/>
  <unicode hex="0111"/>
  <outline>
    <contour>
      <point x="267" y="657" type="line"/>
      <point x="599" y="657" type="line"/>
      <point x="599" y="691" type="line"/>
      <point x="267" y="691" type="line"/>
    </contour>
    <component base="d"/>
  </outline>
</glyph>
<glyph name="Hbar" format="1">
  <advance width="788"/>
  <unicode hex="0126"/>
  <outline>
    <contour>
      <point x="9" y="550" type="line"/>
      <point x="779" y="550" type="line"/>
      <point x="779" y="584" type="line"/>
      <point x="9" y="584" type="line"/>
    </contour>
    <component base="H" xOffset="4"/>
  </outline>
</glyph>
<glyph name="Lslash" format="1">
  <advance width="559"/>
  <unicode hex="0141"/>
  <outline>
    <contour>
      <point x="18" y="225" type="line"/>
      <point x="361" y="447" type="line"/>
      <point x="361" y="486" type="line"/>
      <point x="18" y="264" type="line"/>
    </contour>
    <component base="L" xOffset="22"/>
  </outline>
</glyph>
<glyph name="tcaron" format="1">
  <advance width="372"/>
  <unicode hex="0165"/>
  <outline>
    <contour>
      <point x="283" y="-7" type="curve" smooth="yes"/>
      <point x="309" y="-7"/>
      <point x="338" y="-3"/>
      <point x="371" y="5" type="curve"/>
      <point x="371" y="39" type="line"/>
      <point x="339" y="30"/>
      <point x="311" y="26"/>
      <point x="287" y="26" type="curve" smooth="yes"/>
      <point x="216" y="26"/>
      <point x="180" y="64"/>
      <point x="180" y="139" type="curve" smooth="yes"/>
      <point x="180" y="506" type="line"/>
      <point x="291" y="506" type="line"/>
      <point x="291" y="540" type="line"/>
      <point x="180" y="540" type="line"/>
      <point x="180" y="664" type="line"/>
      <point x="151" y="659" type="line"/>
      <point x="146" y="540" type="line"/>
      <point x="16" y="540" type="line"/>
      <point x="16" y="506" type="line"/>
      <point x="146" y="506" type="line"/>
      <point x="146" y="133" type="line" smooth="yes"/>
      <point x="146" y="41"/>
      <point x="193" y="-7"/>
    </contour>
    <component base="caron.alt" xOffset="220"/>
  </outline>
</glyph>
<glyph name="tbar" format="1">
  <advance width="398"/>
  <unicode hex="0167"/>
  <outline>
    <contour>
      <point x="30" y="315" type="line"/>
      <point x="364" y="315" type="line"/>
      <point x="364" y="349" type="line"/>
      <point x="30" y="349" type="line"/>
    </contour>
    <component base="t" xOffset="13"/>
  </outline>
</glyph>
<glyph name="iinvertedbreve" format="1">
  <advance width="218"/>
  <unicode hex="020B"/>
  <outline>
    <contour>
      <point x="-57" y="631" type="curve"/>
      <point x="-23" y="631" type="line"/>
      <point x="-23" y="715"/>
      <point x="28" y="743"/>
      <point x="110" y="743" type="curve" smooth="yes"/>
      <point x="191" y="743"/>
      <point x="243" y="715"/>
      <point x="243" y="631" type="curve"/>
      <point x="277" y="631" type="line"/>
      <point x="277" y="720"/>
      <point x="223" y="772"/>
      <point x="110" y="772" type="curve" smooth="yes"/>
      <point x="-1" y="772"/>
      <point x="-57" y="721"/>
    </contour>
    <component base="dotlessi"/>
  </outline>
</glyph>
<glyph name="dotaccent" format="1">
  <advance width="233"/>
  <unicode hex="02D9"/>
  <outline>
    <contour>
      <point x="108" y="600" type="move" name="_top"/>
    </contour>
    <contour>
      <point x="108" y="674" type="curve" smooth="yes"/>
      <point x="125" y="674"/>
      <point x="142" y="683"/>
      <point x="142" y="707" type="curve" smooth="yes"/>
      <point x="142" y="731"/>
      <point x="125" y="740"/>
      <point x="108" y="740" type="curve" smooth="yes"/>
      <point x="89" y="740"/>
      <point x="75" y="730"/>
      <point x="75" y="707" type="curve" smooth="yes"/>
      <point x="75" y="684"/>
      <point x="89" y="674"/>
    </contour>
  </outline>
</glyph>
<glyph name="uni0311" format="1">
  <advance width="482"/>
  <unicode hex="0311"/>
  <outline>
    <contour>
      <point x="235" y="600" type="move" name="_top"/>
    </contour>
    <contour>
      <point x="68" y="631" type="curve"/>
      <point x="102" y="631" type="line"/>
      <point x="102" y="715"/>
      <point x="153" y="743"/>
      <point x="235" y="743" type="curve" smooth="yes"/>
      <point x="316" y="743"/>
      <point x="368" y="715"/>
      <point x="368" y="631" type="curve"/>
      <point x="402" y="631" type="line"/>
      <point x="402" y="720"/>
      <point x="348" y="772"/>
      <point x="235" y="772" type="curve" smooth="yes"/>
      <point x="124" y="772"/>
      <point x="68" y="721"/>
    </contour>
  </outline>
</glyph>
<glyph name="dagger" format="1">
  <advance width="516"/>
  <unicode hex="2020"/>
  <outline>
    <contour>
      <point x="250" y="65" type="line"/>
      <point x="267" y="65" type="line"/>
      <point x="275" y="265" type="line"/>
      <point x="275" y="345" type="line"/>
      <point x="267" y="528" type="line"/>
      <point x="418" y="520" type="line"/>
      <point x="479" y="520" type="line"/>
      <point x="479" y="554" type="line"/>
      <point x="418" y="554" type="line"/>
      <point x="267" y="546" type="line"/>
      <point x="274" y="729" type="line"/>
      <point x="274" y="808" type="line"/>
      <point x="240" y="808" type="line"/>
      <point x="240" y="729" type="line"/>
      <point x="249" y="546" type="line"/>
      <point x="98" y="554" type="line"/>
      <point x="37" y="554" type="line"/>
      <point x="37" y="520" type="line"/>
      <point x="98" y="520" type="line"/>
      <point x="249" y="528" type="line"/>
      <point x="241" y="345" type="line"/>
      <point x="241" y="265" type="line"/>
    </contour>
  </outline>
</glyph>
<glyph name="guilsinglleft" format="1">
  <advance width="344"/>
  <unicode hex="2039"/>
  <outline>
    <contour>
      <point x="246" y="30" type="line"/>
      <point x="288" y="30" type="line"/>
      <point x="80" y="268" type="line"/>
      <point x="80" y="272" type="line"/>
      <point x="288" y="510" type="line"/>
      <point x="246" y="510" type="line"/>
      <point x="38" y="272" type="line"/>
      <point x="38" y="268" type="line"/>
    </contour>
  </outline>
</glyph>
<glyph name="fivesuperior" format="1">
  <advance width="411"/>
  <unicode hex="2075"/>
  <outline>
    <contour>
      <point x="163" y="293" type="curve" smooth="yes"/>
      <point x="295" y="293"/>
      <point x="364" y="342"/>
      <point x="364" y="459" type="curve" smooth="yes"/>
      <point x="364" y="572"/>
      <point x="286" y="612"/>
      <point x="104" y="615" type="curve"/>
      <point x="118" y="812" type="line"/>
      <point x="343" y="812" type="line"/>
      <point x="343" y="846" type="line"/>
      <point x="87" y="846" type="line"/>
      <point x="67" y="588" type="line"/>
      <point x="73" y="583" type="line"/>
      <point x="135" y="581" type="line"/>
      <point x="267" y="578"/>
      <point x="330" y="545"/>
      <point x="330" y="459" type="curve" smooth="yes"/>
      <point x="330" y="363"/>
      <point x="274" y="327"/>
      <point x="162" y="327" type="curve" smooth="yes"/>
      <point x="129" y="327"/>
      <point x="94" y="331"/>
      <point x="58" y="338" type="curve"/>
      <point x="50" y="338" type="line"/>
      <point x="50" y="304" type="line"/>
      <point x="88" y="297"/>
      <point x="129" y="293"/>
    </contour>
  </outline>
</glyph>
<glyph name="twoinferior" format="1">
  <advance width="420"/>
  <unicode hex="2082"/>
  <outline>
    <contour>
      <point x="49" y="-97" type="line"/>
      <point x="368" y="-97" type="line"/>
      <point x="368" y="-64" type="line"/>
      <point x="83" y="-64" type="line"/>
      <point x="83" y="-25" type="line"/>
      <point x="83" y="45"/>
      <point x="119" y="88"/>
      <point x="225" y="145" type="curve"/>
      <point x="331" y="203"/>
      <point x="364" y="243"/>
      <point x="364" y="311" type="curve" smooth="yes"/>
      <point x="364" y="404"/>
      <point x="312" y="451"/>
      <point x="210" y="451" type="curve" smooth="yes"/>
      <point x="166" y="451"/>
      <point x="119" y="445"/>
      <point x="65" y="431" type="curve"/>
      <point x="72" y="398" type="line"/>
      <point x="127" y="411"/>
      <point x="171" y="417"/>
      <point x="210" y="417" type="curve" smooth="yes"/>
      <point x="290" y="417"/>
      <point x="330" y="382"/>
      <point x="330" y="311" type="curve" smooth="yes"/>
      <point x="330" y="259"/>
      <point x="298" y="224"/>
      <point x="208" y="175" type="curve"/>
      <point x="91" y="111"/>
      <point x="49" y="58"/>
      <point x="49" y="-25" type="curve"/>
    </contour>
  </outline>
</glyph>
<glyph name="uni20A9" format="1">
  <advance width="1083"/>
  <unicode hex="20A9"/>
  <outline>
    <contour>
      <point x="63" y="266" type="line"/>
      <point x="1017" y="266" type="line"/>
      <point x="1017" y="300" type="line"/>
      <point x="63" y="300" type="line"/>
    </contour>
    <contour>
      <point x="63" y="437" type="line"/>
      <point x="1017" y="437" type="line"/>
      <point x="1017" y="471" type="line"/>
      <point x="63" y="471" type="line"/>
    </contour>
    <component base="W" xOffset="43"/>
  </outline>
</glyph>
<glyph name="uni2113" format="1">
  <advance width="446"/>
  <unicode hex="2113"/>
  <outline>
    <contour>
      <point x="256" y="-3" type="curve"/>
      <point x="317" y="-3"/>
      <point x="347" y="68"/>
      <point x="352" y="79" type="curve"/>
      <point x="320" y="93" type="line"/>
      <point x="307" y="60"/>
      <point x="282" y="31"/>
      <point x="257" y="31" type="curve" smooth="yes"/>
      <point x="228" y="31"/>
      <point x="210" y="91"/>
      <point x="210" y="189" type="curve" smooth="yes"/>
      <point x="210" y="219"/>
      <point x="211" y="247"/>
      <point x="214" y="274" type="curve"/>
      <point x="347" y="413"/>
      <point x="426" y="554"/>
      <point x="426" y="655" type="curve" smooth="yes"/>
      <point x="426" y="738"/>
      <point x="404" y="780"/>
      <point x="361" y="780" type="curve" smooth="yes"/>
      <point x="273" y="780"/>
      <point x="210" y="582"/>
      <point x="181" y="288" type="curve"/>
      <point x="132" y="239"/>
      <point x="83" y="195"/>
      <point x="34" y="156" type="curve"/>
      <point x="54" y="130" type="line"/>
      <point x="94" y="161"/>
      <point x="135" y="196"/>
      <point x="177" y="236" type="curve"/>
      <point x="176" y="225"/>
      <point x="176" y="213"/>
      <point x="176" y="189" type="curve" smooth="yes"/>
      <point x="176" y="68"/>
      <point x="205" y="-3"/>
    </contour>
    <contour>
      <point x="220" y="329" type="curve"/>
      <point x="249" y="585"/>
      <point x="303" y="746"/>
      <point x="361" y="746" type="curve" smooth="yes"/>
      <point x="382" y="746"/>
      <point x="392" y="716"/>
      <point x="392" y="655" type="curve" smooth="yes"/>
      <point x="392" y="570"/>
      <point x="329" y="451"/>
    </contour>
  </outline>
</glyph>
<glyph name="arrowright" format="1">
  <advance width="740"/>
  <unicode hex="2192"/>
  <outline>
    <contour>
      <point x="431" y="121" type="line"/>
      <point x="708" y="401" type="line"/>
      <point x="708" y="405" type="line"/>
      <point x="431" y="685" type="line"/>
      <point x="409" y="664" type="line"/>
      <point x="668" y="414" type="line"/>
      <point x="62" y="420" type="line"/>
      <point x="62" y="386" type="line"/>
      <point x="668" y="392" type="line"/>
      <point x="409" y="142" type="line"/>
    </contour>
  </outline>
</glyph>
<glyph name="partialdiff" format="1">
  <advance width="594"/>
  <unicode hex="2202"/>
  <outline>
    <contour>
      <point x="288" y="-4" type="curve" smooth="yes"/>
      <point x="426" y="-4"/>
      <point x="519" y="113"/>
      <point x="519" y="330" type="curve" smooth="yes"/>
      <point x="519" y="587"/>
      <point x="423" y="743"/>
      <point x="266" y="743" type="curve" smooth="yes"/>
      <point x="205" y="743"/>
      <point x="119" y="705"/>
      <point x="77" y="661" type="curve"/>
      <point x="100" y="643" type="line"/>
      <point x="138" y="679"/>
      <point x="213" y="709"/>
      <point x="266" y="709" type="curve" smooth="yes"/>
      <point x="385" y="709"/>
      <point x="464" y="596"/>
      <point x="481" y="410" type="curve"/>
      <point x="427" y="459"/>
      <point x="363" y="491"/>
      <point x="288" y="491" type="curve" smooth="yes"/>
      <point x="153" y="491"/>
      <point x="58" y="392"/>
      <point x="58" y="254" type="curve" smooth="yes"/>
      <point x="58" y="112"/>
      <point x="150" y="-4"/>
    </contour>
    <contour>
      <point x="288" y="30" type="curve" smooth="yes"/>
      <point x="167" y="30"/>
      <point x="92" y="130"/>
      <point x="92" y="254" type="curve" smooth="yes"/>
      <point x="92" y="372"/>
      <point x="173" y="457"/>
      <point x="288" y="457" type="curve" smooth="yes"/>
      <point x="368" y="457"/>
      <point x="432" y="421"/>
      <point x="484" y="366" type="curve"/>
      <point x="485" y="354"/>
      <point x="485" y="342"/>
      <point x="485" y="330" type="curve" smooth="yes"/>
      <point x="485" y="135"/>
      <point x="409" y="30"/>
    </contour>
  </outline>
</glyph>
<glyph name="product" format="1">
  <advance width="773"/>
  <unicode hex="220F"/>
  <outline>
    <contour>
      <point x="108" y="-101" type="line"/>
      <point x="142" y="-101" type="line"/>
      <point x="142" y="706" type="line"/>
      <point x="631" y="706" type="line"/>
      <point x="631" y="-101" type="line"/>
      <point x="665" y="-101" type="line"/>
      <point x="665" y="740" type="line"/>
      <point x="108" y="740" type="line"/>
    </contour>
  </outline>
</glyph>
<glyph name="uni2215" format="1">
  <advance width="438"/>
  <unicode hex="2215"/>
  <outline>
    <contour>
      <point x="12" y="0" type="line"/>
      <point x="50" y="0" type="line"/>
      <point x="426" y="740" type="line"/>
      <point x="388" y="740" type="line"/>
    </contour>
  </outline>
</glyph>
<glyph name="lessequal" format="1">
  <advance width="532"/>
  <unicode hex="2264"/>
  <outline>
    <contour>
      <point x="83" y="362" type="line"/>
      <point x="118" y="362" type="line"/>
      <point x="449" y="508" type="line"/>
      <point x="449" y="546" type="line"/>
      <point x="83" y="382" type="line"/>
    </contour>
    <contour>
      <point x="83" y="352" type="line"/>
      <point x="446" y="188" type="line"/>
      <point x="446" y="226" type="line"/>
      <point x="118" y="372" type="line"/>
      <point x="83" y="372" type="line"/>
    </contour>
    <contour>
      <point x="83" y="86" type="line"/>
      <point x="447" y="86" type="line"/>
      <point x="447" y="120" type="line"/>
      <point x="83" y="120" type="line"/>
    </contour>
  </outline>
</glyph>
<glyph name="commaaccent" format="1">
  <advance width="226"/>
  <unicode hex="F6C3"/>
  <outline>
    <contour>
      <point x="125" y="0" type="move" name="_bottom"/>
    </contour>
    <contour>
      <point x="67" y="-220" type="line"/>
      <point x="102" y="-220" type="line"/>
      <point x="156" y="-70" type="line"/>
      <point x="118" y="-70" type="line"/>
    </contour>
  </outline>
</glyph>
<glyph name="Atilde.sc" format="1">
  <advance width="609"/>
  <outline>
    <contour>
      <point x="20" y="0" type="line"/>
      <point x="56" y="0" type="line"/>
      <point x="141" y="190" type="line"/>
      <point x="468" y="190" type="line"/>
      <point x="553" y="0" type="line"/>
      <point x="589" y="0" type="line"/>
      <point x="589" y="4" type="line"/>
      <point x="333" y="577" type="line"/>
      <point x="276" y="577" type="line"/>
      <point x="20" y="4" type="line"/>
    </contour>
    <contour>
      <point x="154" y="222" type="line"/>
      <point x="260" y="457" type="line"/>
      <point x="302" y="553" type="line"/>
      <point x="306" y="553" type="line"/>
      <point x="349" y="457" type="line"/>
      <point x="454" y="222" type="line"/>
    </contour>
    <contour>
      <point x="166" y="658" type="line"/>
      <point x="192" y="679"/>
      <point x="219" y="687"/>
      <point x="246" y="687" type="curve" smooth="yes"/>
      <point x="290" y="687"/>
      <point x="336" y="654"/>
      <point x="383" y="654" type="curve" smooth="yes"/>
      <point x="422" y="654"/>
      <point x="460" y="669"/>
      <point x="490" y="694" type="curve"/>
      <point x="470" y="713" type="line"/>
      <point x="443" y="694"/>
      <point x="414" y="684"/>
      <point x="385" y="684" type="curve" smooth="yes"/>
      <point x="335" y="684"/>
      <point x="300" y="717"/>
      <point x="245" y="717" type="curve" smooth="yes"/>
      <point x="211" y="717"/>
      <point x="178" y="705"/>
      <point x="146" y="677" type="curve"/>
    </contour>
  </outline>
</glyph>
<glyph name="Cdotaccent.sc" format="1">
  <advance width="544"/>
  <outline>
    <contour>
      <point x="331" y="-6" type="curve" smooth="yes"/>
      <point x="373" y="-6"/>
      <point x="453" y="5"/>
      <point x="496" y="16" type="curve"/>
      <point x="496" y="47" type="line"/>
      <point x="457" y="37"/>
      <point x="374" y="27"/>
      <point x="331" y="27" type="curve" smooth="yes"/>
      <point x="181" y="27"/>
      <point x="97" y="121"/>
      <point x="97" y="288" type="curve" smooth="yes"/>
      <point x="97" y="455"/>
      <point x="187" y="552"/>
      <point x="340" y="552" type="curve" smooth="yes"/>
      <point x="378" y="552"/>
      <point x="437" y="545"/>
      <point x="496" y="533" type="curve"/>
      <point x="496" y="566" type="line"/>
      <point x="448" y="577"/>
      <point x="382" y="584"/>
      <point x="339" y="584" type="curve" smooth="yes"/>
      <point x="161" y="584"/>
      <point x="63" y="480"/>
      <point x="63" y="287" type="curve" smooth="yes"/>
      <point x="63" y="98"/>
      <point x="158" y="-6"/>
    </contour>
    <contour>
      <point x="321" y="646" type="curve" smooth="yes"/>
      <point x="337" y="646"/>
      <point x="352" y="654"/>
      <point x="352" y="675" type="curve" smooth="yes"/>
      <point x="352" y="696"/>
      <point x="337" y="704"/>
      <point x="321" y="704" type="curve" smooth="yes"/>
      <point x="302" y="704"/>
      <point x="290" y="695"/>
      <point x="290" y="675" type="curve" smooth="yes"/>
      <point x="290" y="654"/>
      <point x="302" y="646"/>
    </contour>
  </outline>
</glyph>
<glyph name="Eogonek.sc" format="1">
  <advance width="555"/>
  <outline>
    <contour>
      <point x="430" y="-172" type="curve" smooth="yes"/>
      <point x="454" y="-172"/>
      <point x="478" y="-168"/>
      <point x="494" y="-162" type="curve"/>
      <point x="494" y="-138" type="line"/>
      <point x="476" y="-143"/>
      <point x="456" y="-146"/>
      <point x="437" y="-146" type="curve" smooth="yes"/>
      <point x="408" y="-146"/>
      <point x="390" y="-139"/>
      <point x="390" y="-113" type="curve" smooth="yes"/>
      <point x="390" y="-73"/>
      <point x="432" y="-46"/>
      <point x="496" y="-18" type="curve"/>
      <point x="496" y="32" type="line"/>
      <point x="134" y="32" type="line"/>
      <point x="134" y="279" type="line"/>
      <point x="474" y="279" type="line"/>
      <point x="474" y="311" type="line"/>
      <point x="134" y="311" type="line"/>
      <point x="134" y="545" type="line"/>
      <point x="489" y="545" type="line"/>
      <point x="489" y="577" type="line"/>
      <point x="100" y="577" type="line"/>
      <point x="100" y="0" type="line"/>
      <point x="465" y="0" type="line"/>
      <point x="378" y="-50"/>
      <point x="359" y="-72"/>
      <point x="359" y="-113" type="curve" smooth="yes"/>
      <point x="359" y="-154"/>
      <point x="380" y="-172"/>
    </contour>
  </outline>
</glyph>
<glyph name="Euro.tab" format="1">
  <advance width="540"/>
  <outline>
    <contour>
      <point x="20" y="437" type="line"/>
      <point x="111" y="437" type="line"/>
      <point x="109" y="416"/>
      <point x="109" y="393"/>
      <point x="109" y="370" type="curve" smooth="yes"/>
      <point x="109" y="346"/>
      <point x="110" y="324"/>
      <point x="111" y="303" type="curve"/>
      <point x="20" y="303" type="line"/>
      <point x="20" y="270" type="line"/>
      <point x="115" y="270" type="line"/>
      <point x="140" y="76"/>
      <point x="247" y="-7"/>
      <point x="460" y="-10" type="curve" smooth="yes"/>
      <point x="484" y="-10"/>
      <point x="495" y="-10"/>
      <point x="506" y="-9" type="curve"/>
      <point x="506" y="26" type="line"/>
      <point x="485" y="25"/>
      <point x="466" y="24"/>
      <point x="458" y="24" type="curve" smooth="yes"/>
      <point x="268" y="24"/>
      <point x="173" y="99"/>
      <point x="149" y="270" type="curve"/>
      <point x="380" y="270" type="line"/>
      <point x="395" y="303" type="line"/>
      <point x="146" y="303" type="line"/>
      <point x="144" y="324"/>
      <point x="143" y="346"/>
      <point x="143" y="370" type="curve" smooth="yes"/>
      <point x="143" y="394"/>
      <point x="144" y="416"/>
      <point x="145" y="437" type="curve"/>
      <point x="420" y="437" type="line"/>
      <point x="435" y="470" type="line"/>
      <point x="148" y="470" type="line"/>
      <point x="171" y="646"/>
      <point x="264" y="715"/>
      <point x="463" y="715" type="curve" smooth="yes"/>
      <point x="484" y="715"/>
      <point x="496" y="714"/>
      <point x="506" y="713" type="curve"/>
      <point x="525" y="747" type="line"/>
      <point x="503" y="748"/>
      <point x="488" y="749"/>
      <point x="458" y="749" type="curve" smooth="yes"/>
      <point x="241" y="749"/>
      <point x="137" y="670"/>
      <point x="114" y="470" type="curve"/>
      <point x="20" y="470" type="line"/>
    </contour>
  </outline>
</glyph>
<glyph name="Kcommaaccent.sc" format="1">
  <advance width="587"/>
  <outline>
    <contour>
      <point x="100" y="0" type="line"/>
      <point x="134" y="0" type="line"/>
      <point x="134" y="279" type="line"/>
      <point x="300" y="279" type="line"/>
      <point x="524" y="0" type="line"/>
      <point x="567" y="0" type="line"/>
      <point x="346" y="275" type="line"/>
      <point x="323" y="294" type="line"/>
      <point x="323" y="299" type="line"/>
      <point x="344" y="317" type="line"/>
      <point x="552" y="577" type="line"/>
      <point x="510" y="577" type="line"/>
      <point x="296" y="311" type="line"/>
      <point x="134" y="311" type="line"/>
      <point x="134" y="577" type="line"/>
      <point x="100" y="577" type="line"/>
    </contour>
    <contour>
      <point x="257" y="-172" type="line"/>
      <point x="290" y="-172" type="line"/>
      <point x="337" y="-55" type="line"/>
      <point x="300" y="-55" type="line"/>
    </contour>
  </outline>
</glyph>
<glyph name="Lcommaaccent.sc" format="1">
  <advance width="482"/>
  <outline>
    <contour>
      <point x="100" y="0" type="line"/>
      <point x="462" y="0" type="line"/>
      <point x="462" y="32" type="line"/>
      <point x="134" y="32" type="line"/>
      <point x="134" y="577" type="line"/>
      <point x="100" y="577" type="line"/>
    </contour>
    <contour>
      <point x="230" y="-172" type="line"/>
      <point x="263" y="-172" type="line"/>
      <point x="311" y="-55" type="line"/>
      <point x="273" y="-55" type="line"/>
    </contour>
  </outline>
</glyph>
<glyph name="Ldot.sc" format="1">
  <advance width="487"/>
  <outline>
    <contour>
      <point x="100" y="0" type="line"/>
      <point x="462" y="0" type="line"/>
      <point x="462" y="32" type="line"/>
      <point x="134" y="32" type="line"/>
      <point x="134" y="577" type="line"/>
      <point x="100" y="577" type="line"/>
    </contour>
    <contour>
      <point x="399" y="261" type="curve" smooth="yes"/>
      <point x="415" y="261"/>
      <point x="430" y="269"/>
      <point x="430" y="290" type="curve" smooth="yes"/>
      <point x="430" y="311"/>
      <point x="415" y="319"/>
      <point x="399" y="319" type="curve" smooth="yes"/>
      <point x="381" y="319"/>
      <point x="368" y="310"/>
      <point x="368" y="290" type="curve" smooth="yes"/>
      <point x="368" y="270"/>
      <point x="381" y="261"/>
    </contour>
  </outline>
</glyph>
<glyph name="Ncaron.sc" format="1">
  <advance width="707"/>
  <outline>
    <contour>
      <point x="100" y="0" type="line"/>
      <point x="133" y="0" type="line"/>
      <point x="133" y="522" type="line"/>
      <point x="138" y="522" type="line"/>
      <point x="187" y="457" type="line"/>
      <point x="574" y="0" type="line"/>
      <point x="607" y="0" type="line"/>
      <point x="607" y="577" type="line"/>
      <point x="573" y="577" type="line"/>
      <point x="573" y="54" type="line"/>
      <point x="569" y="54" type="line"/>
      <point x="513" y="126" type="line"/>
      <point x="132" y="577" type="line"/>
      <point x="100" y="577" type="line"/>
    </contour>
    <contour>
      <point x="352" y="639" type="line"/>
      <point x="484" y="695" type="line"/>
      <point x="484" y="731" type="line"/>
      <point x="352" y="675" type="line"/>
      <point x="220" y="731" type="line"/>
      <point x="220" y="695" type="line"/>
    </contour>
  </outline>
</glyph>
<glyph name="Ndotaccent.sc" format="1">
  <advance width="707"/>
  <outline>
    <contour>
      <point x="100" y="0" type="line"/>
      <point x="133" y="0" type="line"/>
      <point x="133" y="522" type="line"/>
      <point x="138" y="522" type="line"/>
      <point x="187" y="457" type="line"/>
      <point x="574" y="0" type="line"/>
      <point x="607" y="0" type="line"/>
      <point x="607" y="577" type="line"/>
      <point x="573" y="577" type="line"/>
      <point x="573" y="54" type="line"/>
      <point x="569" y="54" type="line"/>
      <point x="513" y="126" type="line"/>
      <point x="132" y="577" type="line"/>
      <point x="100" y="577" type="line"/>
    </contour>
    <contour>
      <point x="352" y="646" type="curve" smooth="yes"/>
      <point x="369" y="646"/>
      <point x="384" y="654"/>
      <point x="384" y="675" type="curve" smooth="yes"/>
      <point x="384" y="696"/>
      <point x="369" y="704"/>
      <point x="352" y="704" type="curve" smooth="yes"/>
      <point x="334" y="704"/>
      <point x="322" y="695"/>
      <point x="322" y="675" type="curve" smooth="yes"/>
      <point x="322" y="654"/>
      <point x="334" y="646"/>
    </contour>
  </outline>
</glyph>
<glyph name="Odieresis.sc" format="1">
  <advance width="675"/>
  <outline>
    <contour>
      <point x="338" y="-8" type="curve" smooth="yes"/>
      <point x="509" y="-8"/>
      <point x="612" y="95"/>
      <point x="612" y="288" type="curve" smooth="yes"/>
      <point x="612" y="480"/>
      <point x="509" y="585"/>
      <point x="338" y="585" type="curve" smooth="yes"/>
      <point x="166" y="585"/>
      <point x="63" y="480"/>
      <point x="63" y="288" type="curve" smooth="yes"/>
      <point x="63" y="95"/>
      <point x="166" y="-8"/>
    </contour>
    <contour>
      <point x="338" y="24" type="curve" smooth="yes"/>
      <point x="186" y="24"/>
      <point x="97" y="122"/>
      <point x="97" y="288" type="curve" smooth="yes"/>
      <point x="97" y="456"/>
      <point x="185" y="553"/>
      <point x="338" y="553" type="curve" smooth="yes"/>
      <point x="490" y="553"/>
      <point x="578" y="456"/>
      <point x="578" y="288" type="curve" smooth="yes"/>
      <point x="578" y="123"/>
      <point x="488" y="24"/>
    </contour>
    <contour>
      <point x="221" y="650" type="curve" smooth="yes"/>
      <point x="237" y="650"/>
      <point x="252" y="658"/>
      <point x="252" y="679" type="curve" smooth="yes"/>
      <point x="252" y="700"/>
      <point x="237" y="708"/>
      <point x="221" y="708" type="curve" smooth="yes"/>
      <point x="203" y="708"/>
      <point x="190" y="699"/>
      <point x="190" y="679" type="curve" smooth="yes"/>
      <point x="190" y="659"/>
      <point x="203" y="650"/>
    </contour>
    <contour>
      <point x="452" y="650" type="curve" smooth="yes"/>
      <point x="469" y="650"/>
      <point x="483" y="658"/>
      <point x="483" y="679" type="curve" smooth="yes"/>
      <point x="483" y="700"/>
      <point x="469" y="708"/>
      <point x="452" y="708" type="curve" smooth="yes"/>
      <point x="434" y="708"/>
      <point x="422" y="699"/>
      <point x="422" y="679" type="curve" smooth="yes"/>
      <point x="422" y="659"/>
      <point x="434" y="650"/>
    </contour>
  </outline>
</glyph>
<glyph name="Rcommaaccent.sc" format="1">
  <advance width="594"/>
  <outline>
    <contour>
      <point x="511" y="0" type="line"/>
      <point x="551" y="0" type="line"/>
      <point x="377" y="235" type="line"/>
      <point x="483" y="256"/>
      <point x="530" y="310"/>
      <point x="530" y="405" type="curve" smooth="yes"/>
      <point x="530" y="531"/>
      <point x="444" y="585"/>
      <point x="245" y="585" type="curve" smooth="yes"/>
      <point x="198" y="585"/>
      <point x="149" y="581"/>
      <point x="99" y="573" type="curve"/>
      <point x="99" y="0" type="line"/>
      <point x="133" y="0" type="line"/>
      <point x="133" y="234" type="line"/>
      <point x="181" y="228"/>
      <point x="220" y="225"/>
      <point x="255" y="225" type="curve" smooth="yes"/>
      <point x="287" y="225"/>
      <point x="315" y="226"/>
      <point x="341" y="229" type="curve"/>
    </contour>
    <contour>
      <point x="252" y="-172" type="line"/>
      <point x="285" y="-172" type="line"/>
      <point x="333" y="-55" type="line"/>
      <point x="295" y="-55" type="line"/>
    </contour>
    <contour>
      <point x="255" y="258" type="curve" smooth="yes"/>
      <point x="205" y="258"/>
      <point x="148" y="262"/>
      <point x="133" y="267" type="curve"/>
      <point x="133" y="545" type="line"/>
      <point x="160" y="550"/>
      <point x="207" y="553"/>
      <point x="246" y="553" type="curve" smooth="yes"/>
      <point x="421" y="553"/>
      <point x="496" y="509"/>
      <point x="496" y="405" type="curve" smooth="yes"/>
      <point x="496" y="299"/>
      <point x="429" y="258"/>
    </contour>
  </outline>
</glyph>
<glyph name="Schwa.sc" format="1">
  <advance width="618"/>
  <outline>
    <contour>
      <point x="58" y="259" type="curve" smooth="yes"/>
      <point x="58" y="95"/>
      <point x="153" y="-8"/>
      <point x="303" y="-8" type="curve" smooth="yes"/>
      <point x="462" y="-8"/>
      <point x="555" y="106"/>
      <point x="555" y="300" type="curve" smooth="yes"/>
      <point x="555" y="490"/>
      <point x="466" y="584"/>
      <point x="286" y="584" type="curve" smooth="yes"/>
      <point x="217" y="584"/>
      <point x="124" y="570"/>
      <point x="79" y="552" type="curve"/>
      <point x="83" y="520" type="line"/>
      <point x="158" y="540"/>
      <point x="229" y="551"/>
      <point x="289" y="551" type="curve" smooth="yes"/>
      <point x="441" y="551"/>
      <point x="515" y="478"/>
      <point x="521" y="318" type="curve"/>
      <point x="62" y="318" type="line"/>
      <point x="60" y="306"/>
      <point x="58" y="282"/>
    </contour>
    <contour>
      <point x="300" y="24" type="curve" smooth="yes"/>
      <point x="159" y="24"/>
      <point x="79" y="128"/>
      <point x="92" y="287" type="curve"/>
      <point x="522" y="287" type="line"/>
      <point x="520" y="114"/>
      <point x="443" y="24"/>
    </contour>
  </outline>
</glyph>
<glyph name="Ubreve.sc" format="1">
  <advance width="676"/>
  <outline>
    <contour>
      <point x="338" y="-8" type="curve" smooth="yes"/>
      <point x="503" y="-8"/>
      <point x="583" y="60"/>
      <point x="583" y="233" type="curve" smooth="yes"/>
      <point x="583" y="577" type="line"/>
      <point x="549" y="577" type="line"/>
      <point x="549" y="238" type="line" smooth="yes"/>
      <point x="549" y="79"/>
      <point x="475" y="24"/>
      <point x="338" y="24" type="curve" smooth="yes"/>
      <point x="201" y="24"/>
      <point x="127" y="79"/>
      <point x="127" y="238" type="curve" smooth="yes"/>
      <point x="127" y="577" type="line"/>
      <point x="93" y="577" type="line"/>
      <point x="93" y="233" type="line" smooth="yes"/>
      <point x="93" y="60"/>
      <point x="173" y="-8"/>
    </contour>
    <contour>
      <point x="335" y="636" type="curve" smooth="yes"/>
      <point x="424" y="636"/>
      <point x="478" y="677"/>
      <point x="478" y="742" type="curve"/>
      <point x="446" y="742" type="line"/>
      <point x="446" y="694"/>
      <point x="404" y="666"/>
      <point x="335" y="666" type="curve" smooth="yes"/>
      <point x="265" y="666"/>
      <point x="223" y="694"/>
      <point x="223" y="742" type="curve"/>
      <point x="191" y="742" type="line"/>
      <point x="191" y="677"/>
      <point x="245" y="636"/>
    </contour>
  </outline>
</glyph>
<glyph name="Uogonek.sc" format="1">
  <advance width="676"/>
  <outline>
    <contour>
      <point x="317" y="-160" type="curve" smooth="yes"/>
      <point x="340" y="-160"/>
      <point x="365" y="-156"/>
      <point x="381" y="-151" type="curve"/>
      <point x="381" y="-127" type="line"/>
      <point x="362" y="-131"/>
      <point x="343" y="-134"/>
      <point x="324" y="-134" type="curve" smooth="yes"/>
      <point x="295" y="-134"/>
      <point x="276" y="-128"/>
      <point x="276" y="-101" type="curve" smooth="yes"/>
      <point x="276" y="-61"/>
      <point x="318" y="-34"/>
      <point x="382" y="-6" type="curve"/>
      <point x="517" y="5"/>
      <point x="583" y="76"/>
      <point x="583" y="233" type="curve" smooth="yes"/>
      <point x="583" y="577" type="line"/>
      <point x="549" y="577" type="line"/>
      <point x="549" y="238" type="line" smooth="yes"/>
      <point x="549" y="79"/>
      <point x="475" y="24"/>
      <point x="338" y="24" type="curve" smooth="yes"/>
      <point x="201" y="24"/>
      <point x="127" y="79"/>
      <point x="127" y="238" type="curve" smooth="yes"/>
      <point x="127" y="577" type="line"/>
      <point x="93" y="577" type="line"/>
      <point x="93" y="233" type="line" smooth="yes"/>
      <point x="93" y="66"/>
      <point x="167" y="-2"/>
      <point x="320" y="-7" type="curve"/>
      <point x="260" y="-44"/>
      <point x="246" y="-66"/>
      <point x="246" y="-101" type="curve" smooth="yes"/>
      <point x="246" y="-143"/>
      <point x="267" y="-160"/>
    </contour>
  </outline>
</glyph>
<glyph name="Uring.sc" format="1">
  <advance width="676"/>
  <outline>
    <contour>
      <point x="338" y="-8" type="curve" smooth="yes"/>
      <point x="503" y="-8"/>
      <point x="583" y="60"/>
      <point x="583" y="233" type="curve" smooth="yes"/>
      <point x="583" y="577" type="line"/>
      <point x="549" y="577" type="line"/>
      <point x="549" y="238" type="line" smooth="yes"/>
      <point x="549" y="79"/>
      <point x="475" y="24"/>
      <point x="338" y="24" type="curve" smooth="yes"/>
      <point x="201" y="24"/>
      <point x="127" y="79"/>
      <point x="127" y="238" type="curve" smooth="yes"/>
      <point x="127" y="577" type="line"/>
      <point x="93" y="577" type="line"/>
      <point x="93" y="233" type="line" smooth="yes"/>
      <point x="93" y="60"/>
      <point x="173" y="-8"/>
    </contour>
    <contour>
      <point x="336" y="629" type="curve" smooth="yes"/>
      <point x="394" y="629"/>
      <point x="439" y="664"/>
      <point x="439" y="711" type="curve" smooth="yes"/>
      <point x="439" y="759"/>
      <point x="394" y="795"/>
      <point x="336" y="795" type="curve" smooth="yes"/>
      <point x="278" y="795"/>
      <point x="232" y="759"/>
      <point x="232" y="711" type="curve" smooth="yes"/>
      <point x="232" y="664"/>
      <point x="278" y="629"/>
    </contour>
    <contour>
      <point x="336" y="656" type="curve" smooth="yes"/>
      <point x="292" y="656"/>
      <point x="263" y="677"/>
      <point x="263" y="711" type="curve" smooth="yes"/>
      <point x="263" y="746"/>
      <point x="292" y="767"/>
      <point x="336" y="767" type="curve" smooth="yes"/>
      <point x="380" y="767"/>
      <point x="407" y="746"/>
      <point x="407" y="711" type="curve" smooth="yes"/>
      <point x="407" y="677"/>
      <point x="380" y="656"/>
    </contour>
  </outline>
</glyph>
<glyph name="Utilde.sc" format="1">
  <advance width="676"/>
  <outline>
    <contour>
      <point x="338" y="-8" type="curve" smooth="yes"/>
      <point x="503" y="-8"/>
      <point x="583" y="60"/>
      <point x="583" y="233" type="curve" smooth="yes"/>
      <point x="583" y="577" type="line"/>
      <point x="549" y="577" type="line"/>
      <point x="549" y="238" type="line" smooth="yes"/>
      <point x="549" y="79"/>
      <point x="475" y="24"/>
      <point x="338" y="24" type="curve" smooth="yes"/>
      <point x="201" y="24"/>
      <point x="127" y="79"/>
      <point x="127" y="238" type="curve" smooth="yes"/>
      <point x="127" y="577" type="line"/>
      <point x="93" y="577" type="line"/>
      <point x="93" y="233" type="line" smooth="yes"/>
      <point x="93" y="60"/>
      <point x="173" y="-8"/>
    </contour>
    <contour>
      <point x="195" y="658" type="line"/>
      <point x="222" y="679"/>
      <point x="248" y="687"/>
      <point x="275" y="687" type="curve" smooth="yes"/>
      <point x="320" y="687"/>
      <point x="366" y="654"/>
      <point x="412" y="654" type="curve" smooth="yes"/>
      <point x="451" y="654"/>
      <point x="489" y="669"/>
      <point x="519" y="694" type="curve"/>
      <point x="499" y="713" type="line"/>
      <point x="472" y="694"/>
      <point x="444" y="684"/>
      <point x="415" y="684" type="curve" smooth="yes"/>
      <point x="364" y="684"/>
      <point x="330" y="717"/>
      <point x="274" y="717" type="curve" smooth="yes"/>
      <point x="240" y="717"/>
      <point x="208" y="705"/>
      <point x="175" y="677" type="curve"/>
    </contour>
  </outline>
</glyph>
<glyph name="ampersand.sc" format="1">
  <advance width="651"/>
  <outline>
    <contour>
      <point x="292" y="-9" type="curve" smooth="yes"/>
      <point x="410" y="-9"/>
      <point x="489" y="30"/>
      <point x="530" y="109" type="curve"/>
      <point x="593" y="79" type="line"/>
      <point x="600" y="79" type="line"/>
      <point x="618" y="101" type="line"/>
      <point x="618" y="106" type="line"/>
      <point x="543" y="142" type="line"/>
      <point x="555" y="177"/>
      <point x="562" y="219"/>
      <point x="562" y="267" type="curve" smooth="yes"/>
      <point x="562" y="320" type="line"/>
      <point x="528" y="320" type="line"/>
      <point x="528" y="267" type="line" smooth="yes"/>
      <point x="528" y="225"/>
      <point x="523" y="188"/>
      <point x="513" y="157" type="curve"/>
      <point x="382" y="220" type="line" smooth="yes"/>
      <point x="226" y="295"/>
      <point x="172" y="350"/>
      <point x="172" y="435" type="curve" smooth="yes"/>
      <point x="172" y="516"/>
      <point x="225" y="557"/>
      <point x="329" y="557" type="curve" smooth="yes"/>
      <point x="369" y="557"/>
      <point x="410" y="549"/>
      <point x="466" y="530" type="curve"/>
      <point x="471" y="530" type="line"/>
      <point x="484" y="553" type="line"/>
      <point x="483" y="558" type="line"/>
      <point x="421" y="579"/>
      <point x="374" y="588"/>
      <point x="328" y="588" type="curve" smooth="yes"/>
      <point x="203" y="588"/>
      <point x="138" y="535"/>
      <point x="138" y="435" type="curve" smooth="yes"/>
      <point x="138" y="387"/>
      <point x="149" y="349"/>
      <point x="178" y="314" type="curve"/>
      <point x="99" y="284"/>
      <point x="61" y="232"/>
      <point x="61" y="161" type="curve" smooth="yes"/>
      <point x="61" y="55"/>
      <point x="148" y="-9"/>
    </contour>
    <contour>
      <point x="292" y="22" type="curve" smooth="yes"/>
      <point x="170" y="22"/>
      <point x="95" y="75"/>
      <point x="95" y="161" type="curve" smooth="yes"/>
      <point x="95" y="220"/>
      <point x="129" y="262"/>
      <point x="202" y="289" type="curve"/>
      <point x="237" y="258"/>
      <point x="287" y="228"/>
      <point x="359" y="193" type="curve" smooth="yes"/>
      <point x="499" y="124" type="line"/>
      <point x="464" y="55"/>
      <point x="395" y="22"/>
    </contour>
  </outline>
</glyph>
<glyph name="four.numerator" format="1">
  <advance width="455"/>
  <outline>
    <contour>
      <point x="300" y="200" type="line"/>
      <point x="334" y="200" type="line"/>
      <point x="334" y="340" type="line"/>
      <point x="423" y="340" type="line"/>
      <point x="423" y="374" type="line"/>
      <point x="334" y="374" type="line"/>
      <point x="334" y="573" type="line"/>
      <point x="310" y="573" type="line"/>
      <point x="301" y="374" type="line"/>
      <point x="72" y="374" type="line"/>
      <point x="237" y="738" type="line"/>
      <point x="237" y="745" type="line"/>
      <point x="217" y="754" type="line"/>
      <point x="211" y="754" type="line"/>
      <point x="28" y="362" type="line"/>
      <point x="43" y="340" type="line"/>
      <point x="300" y="340" type="line"/>
    </contour>
  </outline>
</glyph>
<glyph name="greater.tab" format="1">
  <advance width="540"/>
  <outline>
    <contour>
      <point x="84" y="188" type="line"/>
      <point x="484" y="352" type="line"/>
      <point x="484" y="382" type="line"/>
      <point x="81" y="546" type="line"/>
      <point x="81" y="508" type="line"/>
      <point x="433" y="367" type="line"/>
      <point x="84" y="226" type="line"/>
    </contour>
  </outline>
</glyph>
<glyph name="nine.denominator" format="1">
  <advance width="471"/>
  <outline>
    <contour>
      <point x="175" y="-8" type="curve" smooth="yes"/>
      <point x="327" y="-8"/>
      <point x="416" y="108"/>
      <point x="416" y="307" type="curve" smooth="yes"/>
      <point x="416" y="471"/>
      <point x="351" y="555"/>
      <point x="223" y="555" type="curve" smooth="yes"/>
      <point x="116" y="555"/>
      <point x="44" y="482"/>
      <point x="44" y="373" type="curve" smooth="yes"/>
      <point x="44" y="275"/>
      <point x="113" y="214"/>
      <point x="224" y="214" type="curve" smooth="yes"/>
      <point x="272" y="214"/>
      <point x="331" y="235"/>
      <point x="381" y="271" type="curve"/>
      <point x="371" y="117"/>
      <point x="295" y="26"/>
      <point x="175" y="26" type="curve" smooth="yes"/>
      <point x="145" y="26"/>
      <point x="119" y="30"/>
      <point x="81" y="40" type="curve"/>
      <point x="81" y="4" type="line"/>
      <point x="119" y="-4"/>
      <point x="147" y="-8"/>
    </contour>
    <contour>
      <point x="224" y="248" type="curve" smooth="yes"/>
      <point x="133" y="248"/>
      <point x="79" y="295"/>
      <point x="79" y="373" type="curve" smooth="yes"/>
      <point x="79" y="462"/>
      <point x="136" y="521"/>
      <point x="223" y="521" type="curve" smooth="yes"/>
      <point x="328" y="521"/>
      <point x="381" y="452"/>
      <point x="382" y="312" type="curve"/>
      <point x="334" y="273"/>
      <point x="273" y="248"/>
    </contour>
  </outline>
</glyph>
<glyph name="nine.tosf" format="1">
  <advance width="540"/>
  <outline>
    <contour>
      <point x="256" y="589" type="curve" smooth="yes"/>
      <point x="126" y="589"/>
      <point x="39" y="499"/>
      <point x="39" y="365" type="curve" smooth="yes"/>
      <point x="39" y="245"/>
      <point x="123" y="172"/>
      <point x="256" y="172" type="curve" smooth="yes"/>
      <point x="321" y="172"/>
      <point x="396" y="200"/>
      <point x="455" y="248" type="curve"/>
      <point x="445" y="42"/>
      <point x="349" y="-81"/>
      <point x="196" y="-81" type="curve" smooth="yes"/>
      <point x="159" y="-81"/>
      <point x="128" y="-75"/>
      <point x="85" y="-63" type="curve"/>
      <point x="85" y="-99" type="line"/>
      <point x="126" y="-111"/>
      <point x="161" y="-115"/>
      <point x="197" y="-115" type="curve" smooth="yes"/>
      <point x="382" y="-115"/>
      <point x="490" y="28"/>
      <point x="490" y="273" type="curve" smooth="yes"/>
      <point x="490" y="484"/>
      <point x="411" y="589"/>
    </contour>
    <contour>
      <point x="257" y="206" type="curve" smooth="yes"/>
      <point x="143" y="206"/>
      <point x="75" y="265"/>
      <point x="75" y="365" type="curve" smooth="yes"/>
      <point x="75" y="479"/>
      <point x="146" y="555"/>
      <point x="256" y="555" type="curve" smooth="yes"/>
      <point x="390" y="555"/>
      <point x="457" y="473"/>
      <point x="457" y="276" type="curve"/>
      <point x="399" y="233"/>
      <point x="321" y="206"/>
    </contour>
  </outline>
</glyph>
<glyph name="paragraph.tab" format="1">
  <advance width="540"/>
  <outline>
    <contour>
      <point x="355" y="0" type="line"/>
      <point x="322" y="0" type="line"/>
      <point x="322" y="266" type="line"/>
      <point x="311" y="265"/>
      <point x="291" y="265"/>
      <point x="282" y="265" type="curve" smooth="yes"/>
      <point x="130" y="265"/>
      <point x="32" y="326"/>
      <point x="32" y="505" type="curve" smooth="yes"/>
      <point x="32" y="684"/>
      <point x="129" y="745"/>
      <point x="279" y="745" type="curve" smooth="yes"/>
      <point x="305" y="745"/>
      <point x="326" y="741"/>
      <point x="355" y="735" type="curve"/>
    </contour>
    <contour>
      <point x="444" y="0" type="line"/>
      <point x="411" y="0" type="line"/>
      <point x="411" y="735" type="line"/>
      <point x="444" y="735" type="line"/>
    </contour>
  </outline>
</glyph>
<glyph name="plus.tab" format="1">
  <advance width="540"/>
  <outline>
    <contour>
      <point x="61" y="353" type="line"/>
      <point x="252" y="353" type="line"/>
      <point x="252" y="178" type="line"/>
      <point x="289" y="178" type="line"/>
      <point x="289" y="353" type="line"/>
      <point x="480" y="353" type="line"/>
      <point x="480" y="387" type="line"/>
      <point x="289" y="387" type="line"/>
      <point x="289" y="562" type="line"/>
      <point x="252" y="562" type="line"/>
      <point x="252" y="387" type="line"/>
      <point x="61" y="387" type="line"/>
    </contour>
  </outline>
</glyph>
<glyph name="three.denominator" format="1">
  <advance width="401"/>
  <outline>
    <contour>
      <point x="157" y="-7" type="curve" smooth="yes"/>
      <point x="280" y="-7"/>
      <point x="347" y="49"/>
      <point x="347" y="151" type="curve" smooth="yes"/>
      <point x="347" y="218"/>
      <point x="315" y="264"/>
      <point x="257" y="280" type="curve"/>
      <point x="305" y="299"/>
      <point x="332" y="342"/>
      <point x="332" y="402" type="curve" smooth="yes"/>
      <point x="332" y="498"/>
      <point x="270" y="554"/>
      <point x="162" y="554" type="curve" smooth="yes"/>
      <point x="124" y="554"/>
      <point x="88" y="550"/>
      <point x="54" y="542" type="curve"/>
      <point x="54" y="510" type="line"/>
      <point x="62" y="510" type="line"/>
      <point x="105" y="516"/>
      <point x="141" y="520"/>
      <point x="163" y="520" type="curve" smooth="yes"/>
      <point x="251" y="520"/>
      <point x="297" y="480"/>
      <point x="297" y="405" type="curve" smooth="yes"/>
      <point x="297" y="333"/>
      <point x="255" y="294"/>
      <point x="178" y="294" type="curve" smooth="yes"/>
      <point x="115" y="294" type="line"/>
      <point x="115" y="260" type="line"/>
      <point x="179" y="260" type="line" smooth="yes"/>
      <point x="265" y="260"/>
      <point x="312" y="223"/>
      <point x="312" y="154" type="curve" smooth="yes"/>
      <point x="312" y="73"/>
      <point x="255" y="27"/>
      <point x="157" y="27" type="curve" smooth="yes"/>
      <point x="130" y="27"/>
      <point x="86" y="31"/>
      <point x="62" y="36" type="curve"/>
      <point x="54" y="36" type="line"/>
      <point x="54" y="4" type="line"/>
      <point x="92" y="-3"/>
      <point x="127" y="-7"/>
    </contour>
  </outline>
</glyph>
<glyph name="two.tf" format="1">
  <advance width="540"/>
  <outline>
    <contour>
      <point x="50" y="3" type="line"/>
      <point x="484" y="3" type="line"/>
      <point x="484" y="37" type="line"/>
      <point x="84" y="37" type="line"/>
      <point x="84" y="96" type="line" smooth="yes"/>
      <point x="84" y="196"/>
      <point x="135" y="257"/>
      <point x="286" y="337" type="curve" smooth="yes"/>
      <point x="433" y="415"/>
      <point x="479" y="469"/>
      <point x="479" y="560" type="curve" smooth="yes"/>
      <point x="479" y="684"/>
      <point x="408" y="747"/>
      <point x="269" y="747" type="curve" smooth="yes"/>
      <point x="208" y="747"/>
      <point x="145" y="739"/>
      <point x="73" y="721" type="curve"/>
      <point x="81" y="687" type="line"/>
      <point x="153" y="705"/>
      <point x="214" y="713"/>
      <point x="269" y="713" type="curve" smooth="yes"/>
      <point x="386" y="713"/>
      <point x="444" y="662"/>
      <point x="444" y="560" type="curve" smooth="yes"/>
      <point x="444" y="486"/>
      <point x="398" y="435"/>
      <point x="270" y="367" type="curve" smooth="yes"/>
      <point x="108" y="280"/>
      <point x="50" y="208"/>
      <point x="50" y="96" type="curve" smooth="yes"/>
    </contour>
  </outline>
</glyph>
<glyph name="two.tosf" format="1">
  <advance width="540"/>
  <outline>
    <contour>
      <point x="57" y="0" type="line"/>
      <point x="480" y="0" type="line"/>
      <point x="480" y="34" type="line"/>
      <point x="90" y="34" type="line"/>
      <point x="90" y="74" type="line" smooth="yes"/>
      <point x="90" y="152"/>
      <point x="143" y="200"/>
      <point x="292" y="265" type="curve" smooth="yes"/>
      <point x="433" y="327"/>
      <point x="475" y="373"/>
      <point x="475" y="446" type="curve" smooth="yes"/>
      <point x="475" y="545"/>
      <point x="404" y="595"/>
      <point x="265" y="595" type="curve" smooth="yes"/>
      <point x="200" y="595"/>
      <point x="137" y="582"/>
      <point x="69" y="559" type="curve"/>
      <point x="77" y="525" type="line"/>
      <point x="145" y="548"/>
      <point x="206" y="561"/>
      <point x="265" y="561" type="curve" smooth="yes"/>
      <point x="383" y="561"/>
      <point x="440" y="523"/>
      <point x="440" y="446" type="curve" smooth="yes"/>
      <point x="440" y="389"/>
      <point x="402" y="352"/>
      <point x="276" y="296" type="curve" smooth="yes"/>
      <point x="119" y="226"/>
      <point x="57" y="166"/>
      <point x="57" y="74" type="curve" smooth="yes"/>
    </contour>
  </outline>
</glyph>
<glyph name="underscore.tab" format="1">
  <advance width="540"/>
  <outline>
    <contour>
      <point x="62" y="-99" type="line"/>
      <point x="478" y="-99" type="line"/>
      <point x="478" y="-60" type="line"/>
      <point x="62" y="-60" type="line"/>
    </contour>
  </outline>
</glyph>
<glyph name="zero.numerator" format="1">
  <advance width="507"/>
  <outline>
    <contour>
      <point x="253" y="192" type="curve"/>
      <point x="383" y="192"/>
      <point x="451" y="288"/>
      <point x="451" y="473" type="curve" smooth="yes"/>
      <point x="451" y="657"/>
      <point x="383" y="754"/>
      <point x="253" y="754" type="curve" smooth="yes"/>
      <point x="123" y="754"/>
      <point x="56" y="657"/>
      <point x="56" y="473" type="curve" smooth="yes"/>
      <point x="56" y="288"/>
      <point x="123" y="192"/>
    </contour>
    <contour>
      <point x="253" y="226" type="curve"/>
      <point x="146" y="226"/>
      <point x="90" y="312"/>
      <point x="90" y="473" type="curve" smooth="yes"/>
      <point x="90" y="633"/>
      <point x="146" y="720"/>
      <point x="253" y="720" type="curve" smooth="yes"/>
      <point x="360" y="720"/>
      <point x="417" y="633"/>
      <point x="417" y="473" type="curve" smooth="yes"/>
      <point x="417" y="312"/>
      <point x="360" y="226"/>
    </contour>
  </outline>
</glyph>
<glyph name="zero.tosf" format="1">
  <advance width="540"/>
  <note>
    600
  </note>
  <outline>
    <contour>
      <point x="270" y="-12" type="curve" smooth="yes"/>
      <point x="425" y="-12"/>
      <point x="506" y="89"/>
      <point x="506" y="291" type="curve" smooth="yes"/>
      <point x="506" y="493"/>
      <point x="425" y="590"/>
      <point x="270" y="590" type="curve" smooth="yes"/>
      <point x="115" y="590"/>
      <point x="34" y="493"/>
      <point x="34" y="291" type="curve" smooth="yes"/>
      <point x="34" y="89"/>
      <point x="115" y="-12"/>
    </contour>
    <contour>
      <point x="270" y="22" type="curve" smooth="yes"/>
      <point x="137" y="22"/>
      <point x="68" y="113"/>
      <point x="68" y="291" type="curve" smooth="yes"/>
      <point x="68" y="469"/>
      <point x="137" y="556"/>
      <point x="270" y="556" type="curve" smooth="yes"/>
      <point x="402" y="556"/>
      <point x="472" y="469"/>
      <point x="472" y="291" type="curve" smooth="yes"/>
      <point x="472" y="113"/>
      <point x="402" y="22"/>
    </contour>
  </outline>
</glyph>
